<mxfile host="65bd71144e">
    <diagram id="Qy_U845ABAzyH8i34FE0" name="Page-1">
        <mxGraphModel dx="1090" dy="518" grid="1" gridSize="10" guides="1" tooltips="1" connect="1" arrows="1" fold="1" page="1" pageScale="1" pageWidth="850" pageHeight="1100" math="0" shadow="0">
            <root>
                <mxCell id="0"/>
                <mxCell id="1" parent="0"/>
                <mxCell id="27" value="" style="edgeStyle=none;html=1;entryX=0.5;entryY=0;entryDx=0;entryDy=0;fontFamily=Courier New;labelBackgroundColor=#FFFFFF;fontSize=11;fontColor=#000000;" edge="1" parent="1" source="21" target="32">
                    <mxGeometry relative="1" as="geometry">
                        <mxPoint x="500" y="190" as="targetPoint"/>
                    </mxGeometry>
                </mxCell>
                <mxCell id="21" value="Task Manager App" style="whiteSpace=wrap;html=1;fontFamily=Courier New;labelBackgroundColor=#FFFFFF;fontSize=11;fontColor=#000000;" vertex="1" parent="1">
                    <mxGeometry x="282.5" y="80" width="100" height="40" as="geometry"/>
                </mxCell>
                <mxCell id="42" value="" style="edgeStyle=none;html=1;fontFamily=Courier New;labelBackgroundColor=#FFFFFF;fontSize=11;fontColor=#000000;" edge="1" parent="1" source="32" target="41">
                    <mxGeometry relative="1" as="geometry"/>
                </mxCell>
                <mxCell id="32" value="Display Menu" style="swimlane;fontStyle=0;childLayout=stackLayout;horizontal=1;startSize=26;fillColor=none;horizontalStack=0;resizeParent=1;resizeParentMax=0;resizeLast=0;collapsible=1;marginBottom=0;html=1;fontFamily=Courier New;labelBackgroundColor=#FFFFFF;fontSize=11;fontColor=#000000;" vertex="1" parent="1">
                    <mxGeometry x="240" y="170" width="185" height="156" as="geometry"/>
                </mxCell>
                <mxCell id="33" value="&lt;span style=&quot;font-size: 11px;&quot;&gt;1. Add Task&lt;br style=&quot;font-size: 11px;&quot;&gt;&lt;br style=&quot;font-size: 11px;&quot;&gt;&lt;/span&gt;" style="text;strokeColor=none;fillColor=none;align=left;verticalAlign=top;spacingLeft=4;spacingRight=4;overflow=hidden;rotatable=0;points=[[0,0.5],[1,0.5]];portConstraint=eastwest;whiteSpace=wrap;html=1;fontFamily=Courier New;labelBackgroundColor=#FFFFFF;fontSize=11;fontColor=#000000;" vertex="1" parent="32">
                    <mxGeometry y="26" width="185" height="26" as="geometry"/>
                </mxCell>
                <mxCell id="34" value="&lt;span style=&quot;font-size: 11px;&quot;&gt;2. Display Tasks&lt;/span&gt;" style="text;strokeColor=none;fillColor=none;align=left;verticalAlign=top;spacingLeft=4;spacingRight=4;overflow=hidden;rotatable=0;points=[[0,0.5],[1,0.5]];portConstraint=eastwest;whiteSpace=wrap;html=1;fontFamily=Courier New;labelBackgroundColor=#FFFFFF;fontSize=11;fontColor=#000000;" vertex="1" parent="32">
                    <mxGeometry y="52" width="185" height="26" as="geometry"/>
                </mxCell>
                <mxCell id="35" value="&lt;span style=&quot;font-size: 11px;&quot;&gt;3. Mark Task as Completed&lt;br style=&quot;font-size: 11px;&quot;&gt;&lt;br style=&quot;font-size: 11px;&quot;&gt;&lt;/span&gt;" style="text;strokeColor=none;fillColor=none;align=left;verticalAlign=top;spacingLeft=4;spacingRight=4;overflow=hidden;rotatable=0;points=[[0,0.5],[1,0.5]];portConstraint=eastwest;whiteSpace=wrap;html=1;fontFamily=Courier New;labelBackgroundColor=#FFFFFF;fontSize=11;fontColor=#000000;" vertex="1" parent="32">
                    <mxGeometry y="78" width="185" height="26" as="geometry"/>
                </mxCell>
                <mxCell id="36" value="&lt;span style=&quot;font-size: 11px;&quot;&gt;4. Remove Task&lt;br style=&quot;font-size: 11px;&quot;&gt;&lt;/span&gt;" style="text;strokeColor=none;fillColor=none;align=left;verticalAlign=top;spacingLeft=4;spacingRight=4;overflow=hidden;rotatable=0;points=[[0,0.5],[1,0.5]];portConstraint=eastwest;whiteSpace=wrap;html=1;fontFamily=Courier New;labelBackgroundColor=#FFFFFF;fontSize=11;fontColor=#000000;" vertex="1" parent="32">
                    <mxGeometry y="104" width="185" height="26" as="geometry"/>
                </mxCell>
                <mxCell id="37" value="&lt;span style=&quot;font-size: 11px;&quot;&gt;5. Exit&lt;br style=&quot;font-size: 11px;&quot;&gt;&lt;/span&gt;" style="text;strokeColor=none;fillColor=none;align=left;verticalAlign=top;spacingLeft=4;spacingRight=4;overflow=hidden;rotatable=0;points=[[0,0.5],[1,0.5]];portConstraint=eastwest;whiteSpace=wrap;html=1;fontFamily=Courier New;labelBackgroundColor=#FFFFFF;fontSize=11;fontColor=#000000;" vertex="1" parent="32">
                    <mxGeometry y="130" width="185" height="26" as="geometry"/>
                </mxCell>
                <mxCell id="46" value="" style="edgeStyle=orthogonalEdgeStyle;html=1;fontFamily=Courier New;labelBackgroundColor=#FFFFFF;fontSize=11;exitX=1;exitY=1;exitDx=0;exitDy=0;fontColor=#000000;" edge="1" parent="1" source="41" target="45">
                    <mxGeometry relative="1" as="geometry"/>
                </mxCell>
                <mxCell id="52" value="" style="edgeStyle=orthogonalEdgeStyle;html=1;labelBackgroundColor=#FFFFFF;fontFamily=Courier New;fontSize=11;exitX=0;exitY=0;exitDx=0;exitDy=0;fontColor=#000000;" edge="1" parent="1" source="41" target="51">
                    <mxGeometry relative="1" as="geometry"/>
                </mxCell>
                <mxCell id="56" value="" style="edgeStyle=none;html=1;labelBackgroundColor=#FFFFFF;fontFamily=Courier New;fontSize=11;fontColor=#000000;" edge="1" parent="1" source="41" target="55">
                    <mxGeometry relative="1" as="geometry"/>
                </mxCell>
                <mxCell id="67" style="edgeStyle=orthogonalEdgeStyle;html=1;exitX=0;exitY=0.5;exitDx=0;exitDy=0;entryX=0.5;entryY=0;entryDx=0;entryDy=0;labelBackgroundColor=#FFFFFF;fontFamily=Courier New;fontSize=11;fontColor=#000000;" edge="1" parent="1" source="41" target="65">
                    <mxGeometry relative="1" as="geometry">
                        <Array as="points">
                            <mxPoint x="240" y="410"/>
                            <mxPoint x="240" y="500"/>
                            <mxPoint x="149" y="500"/>
                        </Array>
                    </mxGeometry>
                </mxCell>
                <mxCell id="74" style="edgeStyle=orthogonalEdgeStyle;html=1;exitX=1;exitY=0;exitDx=0;exitDy=0;entryX=0;entryY=0.5;entryDx=0;entryDy=0;labelBackgroundColor=#FFFFFF;fontFamily=Courier New;fontSize=11;fontColor=#000000;" edge="1" parent="1" source="41" target="73">
                    <mxGeometry relative="1" as="geometry">
                        <Array as="points">
                            <mxPoint x="353" y="345"/>
                        </Array>
                    </mxGeometry>
                </mxCell>
                <mxCell id="84" style="edgeStyle=orthogonalEdgeStyle;html=1;exitX=1;exitY=0.5;exitDx=0;exitDy=0;entryX=0;entryY=0.5;entryDx=0;entryDy=0;labelBackgroundColor=#FFFFFF;fontFamily=Courier New;fontSize=11;fontColor=#000000;" edge="1" parent="1" source="41" target="83">
                    <mxGeometry relative="1" as="geometry"/>
                </mxCell>
                <mxCell id="41" value="User &lt;br&gt;Choise" style="rhombus;whiteSpace=wrap;html=1;fillColor=none;fontStyle=0;startSize=26;fontFamily=Courier New;labelBackgroundColor=#FFFFFF;fontSize=11;fontColor=#000000;" vertex="1" parent="1">
                    <mxGeometry x="292.5" y="370" width="80" height="80" as="geometry"/>
                </mxCell>
                <mxCell id="48" value="" style="edgeStyle=none;html=1;fontFamily=Courier New;labelBackgroundColor=#FFFFFF;fontSize=11;fontColor=#000000;" edge="1" parent="1" source="45" target="47">
                    <mxGeometry relative="1" as="geometry"/>
                </mxCell>
                <mxCell id="45" value="1" style="shape=parallelogram;perimeter=parallelogramPerimeter;whiteSpace=wrap;html=1;fixedSize=1;fillColor=none;fontStyle=1;startSize=26;fontFamily=Courier New;labelBackgroundColor=#FFFFFF;fontSize=11;fontColor=#000000;" vertex="1" parent="1">
                    <mxGeometry x="453.75" y="450" width="77.5" height="30" as="geometry"/>
                </mxCell>
                <mxCell id="50" value="" style="edgeStyle=none;html=1;labelBackgroundColor=#FFFFFF;fontFamily=Courier New;fontSize=11;fontColor=#000000;" edge="1" parent="1" source="47" target="49">
                    <mxGeometry relative="1" as="geometry"/>
                </mxCell>
                <mxCell id="47" value="Enter task description" style="whiteSpace=wrap;html=1;fillColor=none;fontStyle=0;startSize=26;fontFamily=Courier New;labelBackgroundColor=#FFFFFF;fontSize=11;fontColor=#000000;" vertex="1" parent="1">
                    <mxGeometry x="432.5" y="520" width="120" height="60" as="geometry"/>
                </mxCell>
                <mxCell id="49" value="Print &quot;task added&quot;" style="whiteSpace=wrap;html=1;fontSize=11;fontFamily=Courier New;fillColor=none;fontStyle=0;startSize=26;labelBackgroundColor=#FFFFFF;fontColor=#000000;" vertex="1" parent="1">
                    <mxGeometry x="632.5" y="520" width="120" height="60" as="geometry"/>
                </mxCell>
                <mxCell id="54" style="edgeStyle=orthogonalEdgeStyle;html=1;entryX=0.5;entryY=0;entryDx=0;entryDy=0;labelBackgroundColor=#FFFFFF;fontFamily=Courier New;fontSize=11;fontColor=#000000;" edge="1" parent="1" source="51" target="53">
                    <mxGeometry relative="1" as="geometry"/>
                </mxCell>
                <mxCell id="51" value="2" style="shape=parallelogram;perimeter=parallelogramPerimeter;whiteSpace=wrap;html=1;fixedSize=1;fontSize=11;fontFamily=Courier New;fillColor=none;fontStyle=1;startSize=26;labelBackgroundColor=#FFFFFF;fontColor=#000000;" vertex="1" parent="1">
                    <mxGeometry x="73.75" y="340" width="72.5" height="40" as="geometry"/>
                </mxCell>
                <mxCell id="53" value="Display Task List" style="whiteSpace=wrap;html=1;fontSize=11;fontFamily=Courier New;fillColor=none;fontStyle=0;startSize=26;labelBackgroundColor=#FFFFFF;fontColor=#000000;" vertex="1" parent="1">
                    <mxGeometry x="50" y="420" width="120" height="60" as="geometry"/>
                </mxCell>
                <mxCell id="58" style="edgeStyle=none;html=1;entryX=0.5;entryY=0;entryDx=0;entryDy=0;labelBackgroundColor=#FFFFFF;fontFamily=Courier New;fontSize=11;fontColor=#000000;" edge="1" parent="1" source="55" target="59">
                    <mxGeometry relative="1" as="geometry">
                        <mxPoint x="332.5" y="590" as="targetPoint"/>
                    </mxGeometry>
                </mxCell>
                <mxCell id="55" value="3" style="shape=parallelogram;perimeter=parallelogramPerimeter;whiteSpace=wrap;html=1;fixedSize=1;fontSize=11;fontFamily=Courier New;fillColor=none;fontStyle=1;startSize=26;labelBackgroundColor=#FFFFFF;fontColor=#000000;" vertex="1" parent="1">
                    <mxGeometry x="293.75" y="520" width="77.5" height="30" as="geometry"/>
                </mxCell>
                <mxCell id="61" value="" style="edgeStyle=none;html=1;labelBackgroundColor=#FFFFFF;fontFamily=Courier New;fontSize=11;fontColor=#000000;" edge="1" parent="1" source="59" target="60">
                    <mxGeometry relative="1" as="geometry"/>
                </mxCell>
                <mxCell id="59" value="Enter task index" style="shape=parallelogram;perimeter=parallelogramPerimeter;whiteSpace=wrap;html=1;fixedSize=1;labelBackgroundColor=#FFFFFF;fontFamily=Courier New;fontSize=11;fontColor=#000000;" vertex="1" parent="1">
                    <mxGeometry x="263.75" y="590" width="137.5" height="60" as="geometry"/>
                </mxCell>
                <mxCell id="63" style="edgeStyle=none;html=1;exitX=1;exitY=0.5;exitDx=0;exitDy=0;entryX=0;entryY=0.5;entryDx=0;entryDy=0;labelBackgroundColor=#FFFFFF;fontFamily=Courier New;fontSize=11;fontColor=#000000;" edge="1" parent="1" source="60" target="62">
                    <mxGeometry relative="1" as="geometry"/>
                </mxCell>
                <mxCell id="60" value="Mark Task as completed" style="whiteSpace=wrap;html=1;fontSize=11;fontFamily=Courier New;labelBackgroundColor=#FFFFFF;fontColor=#000000;" vertex="1" parent="1">
                    <mxGeometry x="272.5" y="700" width="120" height="60" as="geometry"/>
                </mxCell>
                <mxCell id="62" value="Print &quot;Task marked as completed&quot;" style="whiteSpace=wrap;html=1;fontSize=11;fontFamily=Courier New;fillColor=none;fontStyle=0;startSize=26;labelBackgroundColor=#FFFFFF;fontColor=#000000;" vertex="1" parent="1">
                    <mxGeometry x="420" y="700" width="120" height="60" as="geometry"/>
                </mxCell>
                <mxCell id="69" style="edgeStyle=orthogonalEdgeStyle;html=1;exitX=0.5;exitY=1;exitDx=0;exitDy=0;labelBackgroundColor=#FFFFFF;fontFamily=Courier New;fontSize=11;fontColor=#000000;" edge="1" parent="1" source="65" target="68">
                    <mxGeometry relative="1" as="geometry"/>
                </mxCell>
                <mxCell id="65" value="4" style="shape=parallelogram;perimeter=parallelogramPerimeter;whiteSpace=wrap;html=1;fixedSize=1;fontSize=11;fontFamily=Courier New;fillColor=none;fontStyle=1;startSize=26;labelBackgroundColor=#FFFFFF;fontColor=#000000;" vertex="1" parent="1">
                    <mxGeometry x="112.5" y="550" width="72.5" height="40" as="geometry"/>
                </mxCell>
                <mxCell id="71" value="" style="edgeStyle=orthogonalEdgeStyle;html=1;labelBackgroundColor=#FFFFFF;fontFamily=Courier New;fontSize=11;fontColor=#000000;" edge="1" parent="1" source="68" target="70">
                    <mxGeometry relative="1" as="geometry"/>
                </mxCell>
                <mxCell id="68" value="Enter task index" style="shape=parallelogram;perimeter=parallelogramPerimeter;whiteSpace=wrap;html=1;fixedSize=1;labelBackgroundColor=#FFFFFF;fontFamily=Courier New;fontSize=11;fontColor=#000000;" vertex="1" parent="1">
                    <mxGeometry x="50" y="630" width="137.5" height="60" as="geometry"/>
                </mxCell>
                <mxCell id="70" value="Remove task from list" style="whiteSpace=wrap;html=1;fontSize=11;fontFamily=Courier New;labelBackgroundColor=#FFFFFF;fontColor=#000000;" vertex="1" parent="1">
                    <mxGeometry x="50" y="720" width="120" height="60" as="geometry"/>
                </mxCell>
                <mxCell id="76" value="" style="edgeStyle=orthogonalEdgeStyle;html=1;labelBackgroundColor=#FFFFFF;fontFamily=Courier New;fontSize=11;fontColor=#000000;" edge="1" parent="1" source="73" target="75">
                    <mxGeometry relative="1" as="geometry"/>
                </mxCell>
                <mxCell id="73" value="5" style="shape=parallelogram;perimeter=parallelogramPerimeter;whiteSpace=wrap;html=1;fixedSize=1;fillColor=none;fontStyle=1;startSize=26;fontFamily=Courier New;labelBackgroundColor=#FFFFFF;fontSize=11;fontColor=#000000;" vertex="1" parent="1">
                    <mxGeometry x="520" y="330" width="77.5" height="30" as="geometry"/>
                </mxCell>
                <mxCell id="75" value="Print &quot;Goodbye!&quot;" style="whiteSpace=wrap;html=1;fontSize=11;fontFamily=Courier New;fillColor=none;fontStyle=1;startSize=26;labelBackgroundColor=#FFFFFF;fontColor=#000000;" vertex="1" parent="1">
                    <mxGeometry x="656.25" y="315" width="120" height="60" as="geometry"/>
                </mxCell>
                <mxCell id="78" value="Actor" style="shape=umlActor;verticalLabelPosition=bottom;verticalAlign=top;html=1;outlineConnect=0;labelBackgroundColor=#FFFFFF;fontFamily=Courier New;fontSize=11;fontColor=#000000;" vertex="1" parent="1">
                    <mxGeometry x="187.5" y="645" width="20" height="30" as="geometry"/>
                </mxCell>
                <mxCell id="79" value="Actor" style="shape=umlActor;verticalLabelPosition=bottom;verticalAlign=top;html=1;outlineConnect=0;labelBackgroundColor=#FFFFFF;fontFamily=Courier New;fontSize=11;fontColor=#000000;" vertex="1" parent="1">
                    <mxGeometry x="401.25" y="605" width="20" height="30" as="geometry"/>
                </mxCell>
                <mxCell id="80" value="Actor" style="shape=umlActor;verticalLabelPosition=bottom;verticalAlign=top;html=1;outlineConnect=0;labelBackgroundColor=#FFFFFF;fontFamily=Courier New;fontSize=11;fontColor=#000000;" vertex="1" parent="1">
                    <mxGeometry x="560" y="500" width="20" height="30" as="geometry"/>
                </mxCell>
                <mxCell id="88" style="edgeStyle=orthogonalEdgeStyle;html=1;exitX=1;exitY=0.75;exitDx=0;exitDy=0;entryX=0;entryY=0.5;entryDx=0;entryDy=0;labelBackgroundColor=#FFFFFF;fontFamily=Courier New;fontSize=11;fontColor=#000000;" edge="1" parent="1" source="83" target="87">
                    <mxGeometry relative="1" as="geometry"/>
                </mxCell>
                <mxCell id="83" value="Invalid&lt;br&gt;Choice" style="shape=parallelogram;perimeter=parallelogramPerimeter;whiteSpace=wrap;html=1;fixedSize=1;fillColor=none;fontStyle=1;startSize=26;fontFamily=Courier New;labelBackgroundColor=#FFFFFF;fontSize=11;fontColor=#000000;" vertex="1" parent="1">
                    <mxGeometry x="502.5" y="395" width="87.5" height="30" as="geometry"/>
                </mxCell>
                <mxCell id="87" value="Print &quot;Invalid Choice. Please choose a valid option.&quot;" style="whiteSpace=wrap;html=1;fontSize=11;fontFamily=Courier New;fillColor=none;fontStyle=0;startSize=26;labelBackgroundColor=#FFFFFF;fontColor=#000000;" vertex="1" parent="1">
                    <mxGeometry x="620" y="400" width="120" height="60" as="geometry"/>
                </mxCell>
            </root>
        </mxGraphModel>
    </diagram>
</mxfile>